name C:/MyDriveSym/Projects/mobilecap/Data\Session20210825_0001\mocap\ForceDataProcessed\DJ4_forces.mot
datacolumns 28
datarows 13
range 2.55700000 2.56300000
endheader 
time	R_ground_force_vx	R_ground_force_vy	R_ground_force_vz	R_ground_force_px	R_ground_force_py	R_ground_force_pz	R_ground_torque_x	R_ground_torque_y	R_ground_torque_z	L_ground_force_vx	L_ground_force_vy	L_ground_force_vz	L_ground_force_px	L_ground_force_py	L_ground_force_pz	L_ground_torque_x	L_ground_torque_y	L_ground_torque_z	3_ground_force_vx	3_ground_force_vy	3_ground_force_vz	3_ground_force_px	3_ground_force_py	3_ground_force_pz	3_ground_torque_x	3_ground_torque_y	3_ground_torque_z	
          2.55700000	         29.08535800	        543.53898600	        -43.47826300	         -0.23599600	          0.00600000	         -0.42460900	          0.00000000	         -5.59745600	          0.00000000	        -10.17703000	        545.18823500	         60.50658500	         -0.19176900	          0.00600000	         -0.72930700	          0.00000000	          9.69429100	          0.00000000	          0.00000000	          0.00000000	          0.00000000	          0.00000000	          0.00000000	          0.00000000	          0.00000000	          0.00000000	          0.00000000	
          2.55750000	         29.19171200	        542.40389600	        -43.39911400	         -0.23593800	          0.00600000	         -0.42464800	          0.00000000	         -5.58408300	          0.00000000	         -9.97575200	        544.47491500	         60.60828000	         -0.19176800	          0.00600000	         -0.72930000	          0.00000000	          9.67528100	          0.00000000	          0.00000000	          0.00000000	          0.00000000	          0.00000000	          0.00000000	          0.00000000	          0.00000000	          0.00000000	          0.00000000	
          2.55800000	         29.29504800	        541.26861800	        -43.32192600	         -0.23588000	          0.00600000	         -0.42468600	          0.00000000	         -5.57093000	          0.00000000	         -9.77646500	        543.75742700	         60.70987600	         -0.19176800	          0.00600000	         -0.72929300	          0.00000000	          9.65632300	          0.00000000	          0.00000000	          0.00000000	          0.00000000	          0.00000000	          0.00000000	          0.00000000	          0.00000000	          0.00000000	          0.00000000	
          2.55850000	         29.39555000	        540.13321100	        -43.24674800	         -0.23582300	          0.00600000	         -0.42472400	          0.00000000	         -5.55798800	          0.00000000	         -9.57880200	        543.03579400	         60.81135500	         -0.19176700	          0.00600000	         -0.72928600	          0.00000000	          9.63743600	          0.00000000	          0.00000000	          0.00000000	          0.00000000	          0.00000000	          0.00000000	          0.00000000	          0.00000000	          0.00000000	          0.00000000	
          2.55900000	         29.49342000	        538.99778600	        -43.17362600	         -0.23576600	          0.00600000	         -0.42476200	          0.00000000	         -5.54524400	          0.00000000	         -9.38240800	        542.31002800	         60.91270500	         -0.19176500	          0.00600000	         -0.72928000	          0.00000000	          9.61864000	          0.00000000	          0.00000000	          0.00000000	          0.00000000	          0.00000000	          0.00000000	          0.00000000	          0.00000000	          0.00000000	          0.00000000	
          2.55950000	         29.58887400	        537.86249300	        -43.10259500	         -0.23570900	          0.00600000	         -0.42479900	          0.00000000	         -5.53268700	          0.00000000	         -9.18693600	        541.58011900	         61.01390100	         -0.19176400	          0.00600000	         -0.72927300	          0.00000000	          9.59995500	          0.00000000	          0.00000000	          0.00000000	          0.00000000	          0.00000000	          0.00000000	          0.00000000	          0.00000000	          0.00000000	          0.00000000	
          2.56000000	         29.68213700	        536.72750700	        -43.03367300	         -0.23565400	          0.00600000	         -0.42483500	          0.00000000	         -5.52031200	          0.00000000	         -8.99205000	        540.84601900	         61.11490700	         -0.19176300	          0.00600000	         -0.72926700	          0.00000000	          9.58139800	          0.00000000	          0.00000000	          0.00000000	          0.00000000	          0.00000000	          0.00000000	          0.00000000	          0.00000000	          0.00000000	          0.00000000	
          2.56050000	         29.77345800	        535.59303100	        -42.96686900	         -0.23559900	          0.00600000	         -0.42487100	          0.00000000	         -5.50811400	          0.00000000	         -8.79742800	        540.10762700	         61.21567800	         -0.19176200	          0.00600000	         -0.72926200	          0.00000000	          9.56298300	          0.00000000	          0.00000000	          0.00000000	          0.00000000	          0.00000000	          0.00000000	          0.00000000	          0.00000000	          0.00000000	          0.00000000	
          2.56100000	         29.86310500	        534.45930000	        -42.90218600	         -0.23554500	          0.00600000	         -0.42490700	          0.00000000	         -5.49609300	          0.00000000	         -8.60275900	        539.36477300	         61.31615900	         -0.19176100	          0.00600000	         -0.72925600	          0.00000000	          9.54472400	          0.00000000	          0.00000000	          0.00000000	          0.00000000	          0.00000000	          0.00000000	          0.00000000	          0.00000000	          0.00000000	          0.00000000	
          2.56150000	         29.95137700	        533.32659000	        -42.83962600	         -0.23549100	          0.00600000	         -0.42494300	          0.00000000	         -5.48425000	          0.00000000	         -8.40773500	        538.61722600	         61.41629500	         -0.19176100	          0.00600000	         -0.72925100	          0.00000000	          9.52663800	          0.00000000	          0.00000000	          0.00000000	          0.00000000	          0.00000000	          0.00000000	          0.00000000	          0.00000000	          0.00000000	          0.00000000	
          2.56200000	         30.03859600	        532.19520800	        -42.77919700	         -0.23543900	          0.00600000	         -0.42497800	          0.00000000	         -5.47259000	          0.00000000	         -8.21204700	        537.86470800	         61.51603300	         -0.19176200	          0.00600000	         -0.72924500	          0.00000000	          9.50875100	          0.00000000	          0.00000000	          0.00000000	          0.00000000	          0.00000000	          0.00000000	          0.00000000	          0.00000000	          0.00000000	          0.00000000	
          2.56250000	         30.12510300	        531.06547700	        -42.72091700	         -0.23538700	          0.00600000	         -0.42501300	          0.00000000	         -5.46112700	          0.00000000	         -8.01540100	        537.10688900	         61.61532600	         -0.19176300	          0.00600000	         -0.72924000	          0.00000000	          9.49108800	          0.00000000	          0.00000000	          0.00000000	          0.00000000	          0.00000000	          0.00000000	          0.00000000	          0.00000000	          0.00000000	          0.00000000	
          2.56300000	         30.21124700	        529.93773500	        -42.66481000	         -0.23533600	          0.00600000	         -0.42504700	          0.00000000	         -5.44988100	          0.00000000	         -7.81752300	        536.34339700	         61.71413600	         -0.19176400	          0.00600000	         -0.72923600	          0.00000000	          9.47366900	          0.00000000	          0.00000000	          0.00000000	          0.00000000	          0.00000000	          0.00000000	          0.00000000	          0.00000000	          0.00000000	          0.00000000	
